<svg width="17" height="20" viewBox="0 0 17 20" fill="none" xmlns="http://www.w3.org/2000/svg">
<path d="M0.97998 14.5C0.97998 15.38 1.36998 16.17 1.97998 16.72V18.5C1.97998 19.05 2.42998 19.5 2.97998 19.5H3.97998C4.52998 19.5 4.97998 19.05 4.97998 18.5V17.5H12.98V18.5C12.98 19.05 13.43 19.5 13.98 19.5H14.98C15.53 19.5 15.98 19.05 15.98 18.5V16.72C16.59 16.17 16.98 15.38 16.98 14.5V4.5C16.98 1 13.4 0.5 8.97998 0.5C4.55998 0.5 0.97998 1 0.97998 4.5V14.5ZM4.47998 15.5C3.64998 15.5 2.97998 14.83 2.97998 14C2.97998 13.17 3.64998 12.5 4.47998 12.5C5.30998 12.5 5.97998 13.17 5.97998 14C5.97998 14.83 5.30998 15.5 4.47998 15.5ZM13.48 15.5C12.65 15.5 11.98 14.83 11.98 14C11.98 13.17 12.65 12.5 13.48 12.5C14.31 12.5 14.98 13.17 14.98 14C14.98 14.83 14.31 15.5 13.48 15.5ZM14.98 9.5H2.97998V4.5H14.98V9.5Z" fill="#2474E5"/>
</svg>
