<svg width="17" height="21" viewBox="0 0 17 21" fill="none" xmlns="http://www.w3.org/2000/svg">
<path fill-rule="evenodd" clip-rule="evenodd" d="M4.53997 0.899994C3.52154 0.899994 2.54482 1.30456 1.82468 2.0247C1.10454 2.74484 0.699974 3.72156 0.699974 4.73999V15.3C0.699974 15.5546 0.801117 15.7988 0.981152 15.9788C1.16119 16.1589 1.40537 16.26 1.65997 16.26H2.61997L0.699974 20.1H2.61997L3.19597 18.948H13.564L14.14 20.1H16.06L14.14 16.26H15.1C15.3546 16.26 15.5988 16.1589 15.7788 15.9788C15.9588 15.7988 16.06 15.5546 16.06 15.3V4.73999C16.06 3.72156 15.6554 2.74484 14.9353 2.0247C14.2151 1.30456 13.2384 0.899994 12.22 0.899994H4.53997ZM12.22 16.26H4.53997L4.05997 17.22H12.7L12.22 16.26ZM4.53997 2.81999C4.03076 2.81999 3.5424 3.02228 3.18233 3.38235C2.82226 3.74242 2.61997 4.23078 2.61997 4.73999V9.53999H7.41997V2.81999H4.53997ZM14.14 9.53999H9.33997V2.81999H12.22C12.7292 2.81999 13.2175 3.02228 13.5776 3.38235C13.9377 3.74242 14.14 4.23078 14.14 4.73999V9.53999ZM5.49997 12.9C5.49997 13.2819 5.34826 13.6482 5.07821 13.9182C4.80816 14.1883 4.44189 14.34 4.05997 14.34C3.67806 14.34 3.31179 14.1883 3.04174 13.9182C2.77169 13.6482 2.61997 13.2819 2.61997 12.9C2.61997 12.5181 2.77169 12.1518 3.04174 11.8818C3.31179 11.6117 3.67806 11.46 4.05997 11.46C4.44189 11.46 4.80816 11.6117 5.07821 11.8818C5.34826 12.1518 5.49997 12.5181 5.49997 12.9ZM12.7 14.34C13.0819 14.34 13.4482 14.1883 13.7182 13.9182C13.9883 13.6482 14.14 13.2819 14.14 12.9C14.14 12.5181 13.9883 12.1518 13.7182 11.8818C13.4482 11.6117 13.0819 11.46 12.7 11.46C12.3181 11.46 11.9518 11.6117 11.6817 11.8818C11.4117 12.1518 11.26 12.5181 11.26 12.9C11.26 13.2819 11.4117 13.6482 11.6817 13.9182C11.9518 14.1883 12.3181 14.34 12.7 14.34Z" fill="#474747"/>
</svg>
